<svg height="512" viewBox="0 0 512 512" width="512" xmlns="http://www.w3.org/2000/svg"><g id="flat"><circle cx="256" cy="96" fill="#fbfbf9" r="72"/><path d="m256 168a72 72 0 0 1 0-144z" fill="#bce1ff"/><path d="m448 424h-120v-64l-32-8v72h-80v-96l-32-8v104h-128a16 16 0 0 0 -16 16v48h32v-32h360v32h32v-48a16 16 0 0 0 -16-16z" fill="#009cf7"/><path d="m184 320v24l32 8v-24z" fill="#0962b2"/><path d="m296 352v19l32 9v-20z" fill="#0962b2"/><path d="m136 208 29.342-14.671a38 38 0 0 1 36.545 1.4l102.113 61.271-40 8z" fill="#c7463b"/><path d="m398.871 193.318-24.466.029 6.105-15.767-20.51-17.58 8-8v-16h6.059a24 24 0 0 0 16.97-7.029l8.971-8.971 32 48-31 25z" fill="#f5d3bd"/><path d="m408 176-24.179 4.03-3.311-2.45-5.51 14.42 30.024 6.491 9.715-16.571 3.223-2.599z" fill="#e8c8b3"/><path d="m432 168-12 9-12-4-27.49 4.58-20.51-17.58 2.77-2.77 45.23-8.23 13.6 3.4z" fill="#e8c8b3"/><path d="m352 232-40 16 32 40 32-16z" fill="#f5d3bd"/><path d="m160 248 66.889 60.808a73.8 73.8 0 0 0 49.642 19.192 73.8 73.8 0 0 0 57.626-27.7l9.843-12.3-32-40-48 16-90.332-55.589a38.138 38.138 0 0 0 -29.237-4.519 38.136 38.136 0 0 0 -24.4 19.052l-56.031 105.056 24 16z" fill="#dc4d41"/><path d="m24 344 40 32 24-32-24-18a35.1 35.1 0 0 0 -37.722 14.584z" fill="#bce1ff"/><circle cx="48" cy="304" fill="#009cf7" r="24"/><path d="m48 336a32 32 0 1 1 32-32 32.036 32.036 0 0 1 -32 32zm0-48a16 16 0 1 0 16 16 16.019 16.019 0 0 0 -16-16z" fill="#007af6"/><path d="m160 320 268.713 67.178a15.522 15.522 0 0 0 19.287-15.059 15.522 15.522 0 0 0 -11.758-15.058l-276.242-69.061z" fill="#0a71cd"/><path d="m457.56 167.985a21.247 21.247 0 0 1 26.872 7.369l.845 1.269a18.268 18.268 0 0 1 1.633 17.235 106.4 106.4 0 0 0 -6.3 62.22l1.59 7.922-11.528-6.917a58.643 58.643 0 0 1 -28.472-50.283v-6.66a43.709 43.709 0 0 1 10.489-28.407 14.877 14.877 0 0 1 4.871-3.748z" fill="#6e3f0d"/><path d="m256 176a80 80 0 1 1 80-80 80.091 80.091 0 0 1 -80 80zm0-144a64 64 0 1 0 64 64 64.072 64.072 0 0 0 -64-64z" fill="#009cf7"/><path d="m224.006 120a8 8 0 0 1 -3.584-15.157l27.578-13.787v-43.056a8 8 0 0 1 16 0v48a8 8 0 0 1 -4.422 7.155l-32 16a7.976 7.976 0 0 1 -3.572.845z" fill="#009cf7"/><circle cx="256" cy="96" fill="#009cf7" r="16"/><g fill="#fbedbf"><path d="m96 208a8 8 0 0 1 -8-8 32.036 32.036 0 0 1 32-32 8 8 0 0 1 0 16 16.019 16.019 0 0 0 -16 16 8 8 0 0 1 -8 8z"/><path d="m72 184a8 8 0 0 1 -8-8 32.036 32.036 0 0 1 32-32 8 8 0 0 1 0 16 16.019 16.019 0 0 0 -16 16 8 8 0 0 1 -8 8z"/><path d="m408 304a8 8 0 0 1 0-16 16.019 16.019 0 0 0 16-16 8 8 0 0 1 16 0 32.036 32.036 0 0 1 -32 32z"/><path d="m432 328a8 8 0 0 1 0-16 16.019 16.019 0 0 0 16-16 8 8 0 0 1 16 0 32.036 32.036 0 0 1 -32 32z"/></g><path d="m432 168-32-48a25.924 25.924 0 0 1 40.839 5.469l6.385 11.174a47.234 47.234 0 0 1 5.307 32.7 47.245 47.245 0 0 1 -25.219 33l-.458.229a22.478 22.478 0 0 1 -21.346-.68 7.188 7.188 0 0 1 -.9-11.808z" fill="#6e3f0d"/><path d="m432 168-12 9-12-4-27.49 4.58-20.51-17.58 2.77-2.77 45.23-8.23 13.6 3.4z" fill="#e8c8b3"/><path d="m376 272 24.345-12.173a36.258 36.258 0 0 0 12.79-10.673c11.311-14.743 11.878-36.214-3.368-47.387a31.713 31.713 0 0 0 -21.156-9.263l-12.611-.504-4.031 2.687a44.846 44.846 0 0 0 -19.969 37.313z" fill="#dc4d41"/><path d="m378.9 187.779-18.9-3.779 48-8 24 8 8-24-32-8-69.935 12.716a22 22 0 0 0 -18.065 21.645v1.183a22 22 0 0 0 10.681 18.865l29.319 9.591 10.475 3.492a16.439 16.439 0 0 0 19.9-8.243 16.438 16.438 0 0 0 -11.475-23.47z" fill="#f5d3bd"/><circle cx="152" cy="304" fill="#009cf7" r="24"/><path d="m152 336a32 32 0 1 1 32-32 32.036 32.036 0 0 1 -32 32zm0-48a16 16 0 1 0 16 16 16.019 16.019 0 0 0 -16-16z" fill="#007af6"/></g></svg>