<svg id="Capa_1" enable-background="new 0 0 512 512" height="512" viewBox="0 0 512 512" width="512" xmlns="http://www.w3.org/2000/svg"><path d="m256 376h-60c-24.814 0-45-20.186-45-45v-60c0-8.291 6.709-15 15-15s15 6.709 15 15v60c0 8.276 6.724 15 15 15h60c8.291 0 15 6.709 15 15s-6.709 15-15 15z" fill="#985040"/><path d="m166 196c-8.291 0-15-6.709-15-15v-60c0-8.291 6.709-15 15-15s15 6.709 15 15v60c0 8.291-6.709 15-15 15z" fill="#985040"/><path d="m256 286h-180c-8.291 0-15-6.709-15-15 0-32.271 21.079-60.938 51.167-71.06 9.902-20.595 30.601-33.94 53.833-33.94s43.931 13.345 53.833 33.94c30.088 10.123 51.167 38.789 51.167 71.06 0 8.291-6.709 15-15 15z" fill="#5dc379"/><path d="m256 136h-180c-8.291 0-15-6.709-15-15 0-32.271 21.079-60.938 51.167-71.06 9.902-20.595 30.601-33.94 53.833-33.94s43.931 13.345 53.833 33.94c30.088 10.123 51.167 38.789 51.167 71.06 0 8.291-6.709 15-15 15z" fill="#5dc379"/><path d="m361 181v60c0 24.901-20.099 45-45 45h-45v195c0 8.401-6.599 15-15 15s-15-6.599-15-15v-210c0-8.401 6.599-15 15-15h60c8.401 0 15-6.599 15-15v-60c0-8.401 6.599-15 15-15s15 6.599 15 15z" fill="#985040"/><path d="m361 181v60c0 24.901-20.099 45-45 45h-45v195c0 8.401-6.599 15-15 15v-240h60c8.401 0 15-6.599 15-15v-60c0-8.401 6.599-15 15-15s15 6.599 15 15z" fill="#713c2e"/><path d="m136 406h-8.35c-25.004-37.222-68.016-60-112.65-60-8.291 0-15 6.709-15 15v120h211c0-41.353-33.647-75-75-75z" fill="#8bdb52"/><path d="m497 346c-44.634 0-87.646 22.778-112.65 60h-8.35c-41.353 0-75 33.647-75 75h211v-120c0-8.291-6.709-15-15-15z" fill="#5dc379"/><path d="m436 196h-180c-8.291 0-15-6.709-15-15 0-32.271 21.079-60.938 51.167-71.06 9.902-20.595 30.601-33.94 53.833-33.94s43.931 13.345 53.833 33.94c30.088 10.123 51.167 38.789 51.167 71.06 0 8.291-6.709 15-15 15z" fill="#3da472"/><path d="m512 481c0 8.401-6.599 15-15 15h-482c-8.401 0-15-6.599-15-15s6.599-15 15-15h482c8.401 0 15 6.599 15 15z" fill="#8bdb52"/><path d="m512 481c0 8.401-6.599 15-15 15h-241v-30h241c8.401 0 15 6.599 15 15z" fill="#5dc379"/></svg>