<?xml version="1.0" encoding="iso-8859-1"?>
<!-- Generator: Adobe Illustrator 19.0.0, SVG Export Plug-In . SVG Version: 6.00 Build 0)  -->
<svg version="1.1" id="Capa_1" xmlns="http://www.w3.org/2000/svg" xmlns:xlink="http://www.w3.org/1999/xlink" x="0px" y="0px"
	 viewBox="0 0 511.999 511.999" style="enable-background:new 0 0 511.999 511.999;" xml:space="preserve">
<rect x="199.74" y="45.09" style="fill:#7DE2E2;" width="110.85" height="82.27"/>
<path style="fill:#66D3D0;" d="M310.591,45.088H199.737v82.268h57.977v-26.784c0-14.49,7.558-27.93,19.939-35.457L310.591,45.088z"
	/>
<path style="fill:#73B7DD;" d="M314.68,63.524H197.32c-15.407,0-28.012-12.605-28.012-28.012l0,0
	c0-15.407,12.605-28.012,28.012-28.012h117.36c15.407,0,28.012,12.605,28.012,28.012l0,0
	C342.693,50.919,330.087,63.524,314.68,63.524z"/>
<path style="fill:#5E9CD3;" d="M236.753,35.512L236.753,35.512c0-15.407,12.605-28.012,28.012-28.012H197.32
	c-15.407,0-28.012,12.605-28.012,28.012l0,0c0,15.407,12.605,28.012,28.012,28.012h67.446
	C249.359,63.524,236.753,50.919,236.753,35.512z"/>
<path style="fill:#A0F0F2;" d="M431.115,152.797L431.115,152.797c0-25.485-20.851-46.336-46.336-46.336H127.221
	c-25.485,0-46.336,20.851-46.336,46.336l0,0c0,15.954,8.174,30.087,20.54,38.428c4.412,2.975,4.412,9.579,0,12.555
	c-12.366,8.34-20.54,22.473-20.54,38.428l0,0c0,25.485,20.851,46.336,46.336,46.336v123.284c-25.485,0-46.336,20.851-46.336,46.336
	l0,0c0,25.485,20.851,46.336,46.336,46.336h257.558c25.485,0,46.336-20.851,46.336-46.336l0,0c0-24.331-19.009-44.423-42.907-46.195
	V288.406h-0.056c23.924-1.745,42.962-21.85,42.962-46.199l0,0c0-15.954-8.174-30.087-20.54-38.428
	c-4.412-2.975-4.412-9.579,0-12.555C422.941,182.884,431.115,168.751,431.115,152.797z"/>
<g>
	<path style="fill:#7DE2E2;" d="M190.417,458.164L190.417,458.164c0-25.485,20.851-46.277,46.336-46.277V288.485
		c-25.485,0-46.336-20.794-46.336-46.279l0,0c0-9.726,3.038-18.775,8.211-26.248c7.694-11.114,7.694-25.801,0-36.915
		c-5.173-7.472-8.211-16.521-8.211-26.247l0,0c0-25.485,20.851-46.336,46.336-46.336H127.221c-25.485,0-46.336,20.851-46.336,46.336
		l0,0c0,15.954,8.174,30.087,20.54,38.428c4.412,2.975,4.412,9.579,0,12.555c-12.366,8.341-20.54,22.473-20.54,38.428l0,0
		c0,25.485,20.851,46.336,46.336,46.336v123.284c-25.485,0-46.336,20.851-46.336,46.336l0,0c0,25.485,20.851,46.336,46.336,46.336
		h109.532C211.268,504.5,190.417,483.649,190.417,458.164z"/>
	<path style="fill:#7DE2E2;" d="M364.42,203.554H229.435c-4.143,0-7.5-3.358-7.5-7.5s3.357-7.5,7.5-7.5H364.42
		c4.143,0,7.5,3.358,7.5,7.5S368.563,203.554,364.42,203.554z"/>
</g>
<polygon style="fill:#73B7DD;" points="127.221,411.827 388.209,411.969 388.209,288.406 127.221,288.543 "/>
<polygon style="fill:#5E9CD3;" points="236.753,288.485 236.753,411.887 127.221,411.827 127.221,288.543 "/>
<path style="fill:#57565C;" d="M238.595,383.299l-28.95-18.228c-10.272-6.468-13.992-19.964-7.894-30.46
	c6.403-11.02,20.605-14.448,31.297-7.715l14.716,9.266c6.058,3.814,13.767,3.814,19.825,0l14.716-9.266
	c10.465-6.589,24.285-3.447,30.874,7.016c6.588,10.463,3.446,24.286-7.017,30.874L276.758,383.3
	C265.098,390.642,250.257,390.642,238.595,383.299z"/>
<path style="fill:#F7AFD1;" d="M290.502,374.651c-4.224-10.713-17.298-18.523-32.78-18.523c-15.5,0-28.587,7.829-32.795,18.561
	l13.674,8.61c11.662,7.343,26.503,7.343,38.166,0L290.502,374.651z"/>
<path d="M345.871,331.518v-12.45c0-4.142-3.357-7.5-7.5-7.5s-7.5,3.358-7.5,7.5v12.45c0,4.142,3.357,7.5,7.5,7.5
	S345.871,335.66,345.871,331.518z"/>
<path d="M184.559,331.518v-12.45c0-4.142-3.357-7.5-7.5-7.5s-7.5,3.358-7.5,7.5v12.45c0,4.142,3.357,7.5,7.5,7.5
	S184.559,335.66,184.559,331.518z"/>
<path d="M438.615,242.207c0-17.884-8.914-34.574-23.837-44.626c-0.017-0.035-0.017-0.122-0.01-0.138
	c14.933-10.07,23.847-26.761,23.847-44.646c0-9.989-2.786-19.759-8.057-28.254c-2.185-3.52-6.806-4.603-10.327-2.419
	c-3.52,2.184-4.603,6.808-2.419,10.327c3.796,6.118,5.803,13.153,5.803,20.346c0,12.891-6.442,24.932-17.233,32.209
	c-4.143,2.794-6.616,7.465-6.615,12.497c0,5.03,2.473,9.701,6.614,12.494c10.792,7.279,17.234,19.32,17.234,32.21
	c0,20.239-15.816,37.247-36.008,38.719c-0.292,0.021-226.882,0.117-226.882,0.117c-4.143,0-7.5,3.358-7.5,7.5s3.357,7.5,7.5,7.5
	h219.983v108.284H134.721V288.543c0-4.142-3.357-7.5-7.5-7.5c-21.414,0-38.836-17.422-38.836-38.836
	c0-12.89,6.442-24.931,17.233-32.209c4.143-2.793,6.615-7.464,6.615-12.495c0.001-5.031-2.473-9.703-6.615-12.496
	c-10.791-7.278-17.233-19.319-17.233-32.21c0-21.415,17.422-38.836,38.836-38.836H384.78c4.019,0,7.983,0.619,11.784,1.84
	c3.94,1.265,8.168-0.902,9.435-4.847c1.267-3.944-0.903-8.167-4.847-9.435c-5.286-1.698-10.794-2.559-16.372-2.559h-66.688V70.857
	c17.987-1.722,32.102-16.914,32.102-35.345C350.192,15.931,334.262,0,314.681,0H197.319c-19.581,0-35.512,15.931-35.512,35.512
	c0,17.856,13.248,32.669,30.43,35.143V98.96H127.22c-29.686,0-53.836,24.151-53.836,53.836c0,17.885,8.914,34.575,23.837,44.626
	c0.017,0.035,0.017,0.122,0.009,0.138c-14.932,10.071-23.846,26.761-23.846,44.646c0,27.142,20.187,49.656,46.336,53.316v109.325
	c-26.149,3.66-46.336,26.174-46.336,53.316c0,29.686,24.15,53.836,53.836,53.836h257.559c29.686,0,53.836-24.151,53.836-53.836
	c0-25.658-18.354-47.586-42.906-52.699V294.906C420.267,289.796,438.615,267.877,438.615,242.207z M176.808,35.512
	c0-11.311,9.201-20.512,20.512-20.512h117.361c11.311,0,20.512,9.202,20.512,20.512s-9.201,20.512-20.512,20.512H197.319
	C186.009,56.024,176.808,46.823,176.808,35.512z M207.237,71.024h95.854V98.96h-95.854V71.024z M423.615,458.164
	c0,21.415-17.422,38.836-38.836,38.836H127.221c-21.414,0-38.836-17.422-38.836-38.836s17.422-38.836,38.836-38.836
	c0,0,260.138,0.099,260.434,0.121C407.819,420.943,423.615,437.949,423.615,458.164z"/>
<path d="M234.599,389.646c7.01,4.414,15.044,6.621,23.079,6.621c8.034,0,16.068-2.207,23.078-6.621l29.404-18.514
	c13.945-8.781,18.147-27.271,9.367-41.217c-8.781-13.944-27.27-18.146-41.217-9.366l-14.717,9.266
	c-3.592,2.262-8.237,2.264-11.833,0l-14.716-9.266c-6.926-4.361-15.117-5.687-23.067-3.73c-7.947,1.955-14.592,6.936-18.712,14.024
	c-7.983,13.741-3.325,31.943,10.384,40.574L234.599,389.646z M208.235,338.379c2.056-3.537,9.426-10.971,20.817-5.137l14.716,9.266
	c8.449,5.321,19.368,5.32,27.817,0l14.717-9.266c6.948-4.374,16.158-2.28,20.531,4.666c4.374,6.947,2.28,16.157-4.666,20.531
	l-29.404,18.514c-9.165,5.771-21.01,5.77-30.173,0l-28.949-18.228C206.688,354.346,204.262,345.219,208.235,338.379z"/>
<g>
</g>
<g>
</g>
<g>
</g>
<g>
</g>
<g>
</g>
<g>
</g>
<g>
</g>
<g>
</g>
<g>
</g>
<g>
</g>
<g>
</g>
<g>
</g>
<g>
</g>
<g>
</g>
<g>
</g>
</svg>
